<?xml version="1.0" standalone="no"?>
<!DOCTYPE svg PUBLIC "-//W3C//DTD SVG 20010904//EN"
 "http://www.w3.org/TR/2001/REC-SVG-20010904/DTD/svg10.dtd">
<svg version="1.0" xmlns="http://www.w3.org/2000/svg"
 width="700.000000pt" height="700.000000pt" viewBox="0 0 700.000000 700.000000"
 preserveAspectRatio="xMidYMid meet">
<metadata>
Created by potrace 1.11, written by Peter Selinger 2001-2013
</metadata>
<g transform="translate(0.000000,700.000000) scale(0.100000,-0.100000)"
fill="#000000" stroke="none">
<path d="M0 3500 c0 -1925 2 -3500 5 -3500 5 0 1466 554 3760 1425 352 134
855 325 1117 424 l477 181 473 -2 473 -3 247 -725 c136 -399 293 -855 347
-1015 l100 -290 0 3503 1 3502 -3500 0 -3500 0 0 -3500z m2440 913 c1 -5 -142
-461 -317 -1015 l-318 -1008 -491 0 -491 0 317 999 c175 550 320 1007 323
1015 6 14 61 16 492 16 267 0 485 -3 485 -7z m2310 -20 c-5 -16 -145 -458
-310 -983 -166 -525 -306 -970 -311 -987 l-11 -33 -489 0 c-269 0 -489 3 -489
6 0 7 548 1740 606 1917 l36 107 488 0 489 0 -9 -27z m-3404 -25 c-7 -24 -141
-447 -297 -941 -200 -634 -285 -892 -290 -875 -4 13 -133 433 -288 934 -154
501 -281 914 -281 917 0 4 263 7 585 7 l584 0 -13 -42z m2324 37 c0 -9 -582
-1849 -588 -1859 -2 -5 -132 403 -287 905 -155 503 -285 924 -289 937 l-7 22
585 0 c322 0 586 -2 586 -5z m3150 -300 l0 -305 -990 0 -990 0 0 305 0 305
990 0 990 0 0 -305z m-520 -1060 l0 -655 -475 0 -475 0 0 655 0 655 475 0 475
0 0 -655z"/>
</g>
</svg>
